<svg id="Layer_1" data-name="Layer 1" xmlns="http://www.w3.org/2000/svg" xmlns:xlink="http://www.w3.org/1999/xlink" viewBox="0 0 238.25 55.23"><defs><style>.cls-1{fill:none;}.cls-2{clip-path:url(#clip-path);}.cls-3{fill:#3760ab;}.cls-4,.cls-5{fill:#61c4dc;}.cls-4{opacity:0.5;}</style><clipPath id="clip-path" transform="translate(-22.61 -43.24)"><rect class="cls-1" x="22.61" y="43.16" width="238.25" height="55.31"/></clipPath></defs><g class="cls-2"><path class="cls-3" d="M141.88,69.43V65.37h-7V57.86H129v7.51H125.8v4.06H129V81c0,4.56,2.82,7.24,7.6,7.24a12.24,12.24,0,0,0,4.87-1V82.83a6.41,6.41,0,0,1-3,.72c-2.24,0-3.58-1.21-3.58-3.31V69.43Zm119,4.47V87.79H255V74.17c0-2.91-1.56-4.6-4.2-4.6-2.94,0-4.69,2.18-4.69,5.85V87.79h-5.89V74.17c0-2.91-1.52-4.6-4.16-4.6-3,0-4.73,2.18-4.73,5.85V87.79h-5.9V65.37h5.9v7.77h.09c0-5.18,2.72-8.22,7.24-8.22,4.69,0,7.45,3.17,7.45,8.22h.1c0-5.18,2.58-8.22,7-8.22,4.82,0,7.68,3.31,7.68,9M214,76.58c0-4.16-2.1-7-5.68-7s-5.67,2.63-5.67,7,2.1,7,5.67,7,5.68-2.86,5.68-7m5.58-11.21V87.79H213.7V80.06h-.09c0,5.14-3,8.18-8,8.18-5.63,0-8.93-4.34-8.93-11.66s3.3-11.66,8.93-11.66c5,0,8,3,8,8.13h.09V65.37Zm-27.38,8.75V87.79h-5.89V74.39c0-3-1.61-4.82-4.38-4.82-3.13,0-5,2.27-5,6.07V87.79h-5.89V53.39H177V73.23h.09c0-5.23,2.72-8.31,7.28-8.31,5,0,7.86,3.39,7.86,9.2m-48,2.46c0-7.33,4.33-11.66,11.57-11.66,6.12,0,10.09,3.22,11,8.75H161a5.16,5.16,0,0,0-5.18-4.1c-3.49,0-5.54,2.63-5.54,7s2.05,7,5.54,7c2.77,0,4.6-1.61,5.27-4.38h5.81c-.86,5.76-4.83,9.07-11.08,9.07-7.24,0-11.57-4.34-11.57-11.66m-27.82,0c0-4.16-2.1-7-5.67-7s-5.68,2.63-5.68,7,2.1,7,5.68,7,5.67-2.86,5.67-7M122,65.37V87.79h-5.89V80.06H116c0,5.14-3,8.18-8,8.18-5.63,0-8.93-4.34-8.93-11.66s3.3-11.66,8.93-11.66c5,0,8,3,8,8.13h.09V65.37ZM97.45,82.83v5H76.77V54.73h6.16v28.1Z" transform="translate(-22.61 -43.24)"/></g><rect id="logoMark_PathItem_" data-name="logoMark &lt;PathItem&gt;" class="cls-4" width="11.05" height="55.23" rx="5.52"/><rect id="logoMark_PathItem_2" data-name="logoMark &lt;PathItem&gt;" class="cls-4" y="44.19" width="33.14" height="11.05" rx="5.52"/><circle id="logoMark_PathItem_3" data-name="logoMark &lt;PathItem&gt;" class="cls-3" cx="27.62" cy="49.71" r="5.52"/><circle id="logoMark_PathItem_4" data-name="logoMark &lt;PathItem&gt;" class="cls-5" cx="5.52" cy="49.71" r="5.52"/><circle id="logoMark_PathItem_5" data-name="logoMark &lt;PathItem&gt;" class="cls-5" cx="27.62" cy="27.62" r="5.52"/><circle id="logoMark_PathItem_6" data-name="logoMark &lt;PathItem&gt;" class="cls-3" cx="5.52" cy="27.62" r="5.52"/><circle id="logoMark_PathItem_7" data-name="logoMark &lt;PathItem&gt;" class="cls-3" cx="5.52" cy="5.52" r="5.52"/><circle id="logoMark_PathItem_8" data-name="logoMark &lt;PathItem&gt;" class="cls-5" cx="27.62" cy="5.52" r="5.52"/></svg>