<svg xmlns="http://www.w3.org/2000/svg" width="197" height="73" viewBox="0 0 197 73"><g><g><g opacity=".5"><path fill="#61c3dc" d="M7 72.219a7 7 0 0 1-7-7V6.996a7 7 0 0 1 7-7h.444a7 7 0 0 1 7 7v58.223a7 7 0 0 1-7 7z"/></g><g opacity=".5"><path fill="#61c3dc" d="M7 72.219a7 7 0 0 1-7-7v-.445a7 7 0 0 1 7-7h29.334a7 7 0 0 1 7 7v.445a7 7 0 0 1-7 7z"/></g><g><path fill="#fff" d="M28.89 64.996a7.222 7.222 0 1 1 14.444 0 7.222 7.222 0 0 1-14.445 0z"/></g><g><path fill="#61c3dc" d="M0 64.996a7.222 7.222 0 1 1 14.445 0 7.222 7.222 0 0 1-14.445 0z"/></g><g><path fill="#61c3dc" d="M28.89 36.107a7.222 7.222 0 1 1 14.444 0 7.222 7.222 0 0 1-14.445 0z"/></g><g><path fill="#fff" d="M0 36.107a7.222 7.222 0 1 1 14.445 0 7.222 7.222 0 0 1-14.445 0z"/></g><g><path fill="#fff" d="M0 7.218a7.222 7.222 0 1 1 14.445 0A7.222 7.222 0 0 1 0 7.218z"/></g><g><path fill="#61c3dc" d="M28.89 7.218a7.222 7.222 0 1 1 14.444 0 7.222 7.222 0 0 1-14.445 0z"/></g><g><path fill="#fff" d="M108.674 34.727v7.56c0 1.468.935 2.311 2.498 2.311a4.502 4.502 0 0 0 2.093-.5v3.062a8.5 8.5 0 0 1-3.405.718c-3.342 0-5.31-1.874-5.31-5.06v-8.091h-2.25v-2.842h2.245v-5.248h4.129v5.248h4.871v2.842zm88.076 3.124v9.715h-4.123v-9.528c0-2.03-1.093-3.217-2.937-3.217-2.061 0-3.28 1.53-3.28 4.092v8.653h-4.123v-9.528c0-2.03-1.062-3.217-2.904-3.217-2.094 0-3.311 1.53-3.311 4.092v8.653h-4.123V31.885h4.123v5.435h.062c0-3.624 1.905-5.748 5.06-5.748 3.28 0 5.216 2.218 5.216 5.748h.064c0-3.624 1.81-5.748 4.904-5.748 3.373 0 5.372 2.312 5.372 6.28zm-32.765 1.874c0-2.905-1.468-4.904-3.966-4.904-2.5 0-3.968 1.843-3.968 4.904s1.468 4.873 3.968 4.873c2.498 0 3.966-1.999 3.966-4.873zm3.906-7.84v15.68h-4.123v-5.403h-.063c0 3.592-2.093 5.716-5.591 5.716-3.936 0-6.249-3.03-6.249-8.153 0-5.123 2.313-8.153 6.249-8.153 3.497 0 5.591 2.124 5.591 5.685h.063v-5.372zm-19.146 6.122v9.559h-4.123v-9.372c0-2.124-1.125-3.373-3.062-3.373-2.187 0-3.467 1.593-3.467 4.248v8.497h-4.123V23.513h4.123v13.87h.063c0-3.656 1.904-5.81 5.09-5.81 3.468 0 5.499 2.373 5.499 6.434zm-33.579 1.718c0-5.123 3.03-8.153 8.091-8.153 4.28 0 7.06 2.25 7.684 6.123h-4.061c-.531-1.812-1.78-2.874-3.623-2.874-2.437 0-3.873 1.843-3.873 4.904s1.436 4.873 3.873 4.873c1.937 0 3.217-1.124 3.685-3.061h4.062c-.595 4.03-3.374 6.341-7.747 6.341-5.06 0-8.09-3.03-8.09-8.153zm-19.454 0c0-2.905-1.468-4.904-3.966-4.904-2.5 0-3.968 1.843-3.968 4.904s1.468 4.873 3.968 4.873c2.498 0 3.966-1.999 3.966-4.873zm3.906-7.84v15.68h-4.123v-5.403h-.063c0 3.592-2.093 5.716-5.593 5.716-3.934 0-6.247-3.03-6.247-8.153 0-5.123 2.313-8.153 6.247-8.153 3.5 0 5.593 2.124 5.593 5.685h.063v-5.372zM82.476 44.098v3.468H68.014V24.45h4.31v19.648z"/></g></g></g></svg>