<svg xmlns="http://www.w3.org/2000/svg" viewBox="0 0 20 20"><g><g><g><path fill="#1e4a7b" d="M2.641 4.697c1.319 0 2.388-1.05 2.388-2.347C5.029 1.052 3.959 0 2.64 0 1.321 0 .252 1.052.252 2.35c0 1.297 1.069 2.347 2.389 2.347"/></g><g><path fill="#1e4a7b" d="M.8 19.297h4.284V6.94H.799z"/></g><g><path fill="#1e4a7b" d="M11.097 12.425c0-1.417.67-2.803 2.273-2.803 1.603 0 1.997 1.386 1.997 2.769v6.748h4.265v-7.024c0-4.88-2.884-5.722-4.659-5.722-1.773 0-2.751.6-3.876 2.053V6.783H6.819v12.356h4.278z"/></g></g></g></svg>