<svg xmlns="http://www.w3.org/2000/svg" viewBox="0 0 687 687"><g><g ><g ><path fill="#acd8cf" d="M556.485 112.434c0-9.933 8.053-17.986 17.987-17.986 9.933 0 17.986 8.053 17.986 17.986 0 9.934-8.053 17.986-17.986 17.986-9.934 0-17.987-8.052-17.987-17.986z"/></g><g ><path fill="#acd8cf" d="M512.86 75.828c0-9.933 8.052-17.986 17.986-17.986 9.934 0 17.986 8.053 17.986 17.986 0 9.934-8.052 17.987-17.986 17.987-9.934 0-17.986-8.053-17.986-17.987z"/></g><g ><path fill="#acd8cf" d="M463.54 47.353c0-9.933 8.053-17.986 17.987-17.986 9.933 0 17.986 8.053 17.986 17.986 0 9.934-8.053 17.987-17.986 17.987-9.934 0-17.987-8.053-17.987-17.987z"/></g><g ><path fill="#acd8cf" d="M410.025 27.876c0-9.934 8.053-17.986 17.987-17.986 9.933 0 17.986 8.052 17.986 17.986 0 9.934-8.053 17.986-17.986 17.986-9.934 0-17.987-8.052-17.987-17.986z"/></g><g ><path fill="#acd8cf" d="M353.941 17.986C353.941 8.053 361.994 0 371.928 0c9.933 0 17.986 8.053 17.986 17.986 0 9.934-8.053 17.987-17.986 17.987-9.934 0-17.987-8.053-17.987-17.987z"/></g><g ><path fill="#acd8cf" d="M296.992 17.986C296.992 8.053 305.045 0 314.978 0c9.934 0 17.987 8.053 17.987 17.986 0 9.934-8.053 17.987-17.987 17.987-9.933 0-17.986-8.053-17.986-17.987z"/></g><g ><path fill="#acd8cf" d="M240.908 27.876c0-9.934 8.053-17.986 17.986-17.986 9.934 0 17.987 8.052 17.987 17.986 0 9.934-8.053 17.986-17.987 17.986-9.933 0-17.986-8.052-17.986-17.986z"/></g><g ><path fill="#acd8cf" d="M187.393 47.353c0-9.933 8.053-17.986 17.986-17.986 9.934 0 17.987 8.053 17.987 17.986 0 9.934-8.053 17.987-17.987 17.987-9.933 0-17.986-8.053-17.986-17.987z"/></g><g ><path fill="#acd8cf" d="M138.074 75.828c0-9.933 8.052-17.986 17.986-17.986 9.934 0 17.986 8.053 17.986 17.986 0 9.934-8.052 17.987-17.986 17.987-9.934 0-17.986-8.053-17.986-17.987z"/></g><g ><path fill="#acd8cf" d="M94.448 112.434c0-9.933 8.053-17.986 17.986-17.986 9.934 0 17.987 8.053 17.987 17.986 0 9.934-8.053 17.986-17.987 17.986-9.933 0-17.986-8.052-17.986-17.986z"/></g><g ><path fill="#acd8cf" d="M57.842 156.06c0-9.934 8.052-17.987 17.986-17.987 9.934 0 17.986 8.053 17.986 17.987 0 9.933-8.052 17.986-17.986 17.986-9.934 0-17.986-8.053-17.986-17.986z"/></g><g ><path fill="#acd8cf" d="M29.367 205.38c0-9.934 8.053-17.987 17.986-17.987 9.934 0 17.987 8.053 17.987 17.986 0 9.934-8.053 17.987-17.987 17.987-9.933 0-17.986-8.053-17.986-17.987z"/></g><g ><path fill="#acd8cf" d="M9.89 258.894c0-9.933 8.052-17.986 17.985-17.986 9.934 0 17.987 8.053 17.987 17.986 0 9.934-8.053 17.987-17.987 17.987-9.933 0-17.986-8.053-17.986-17.987z"/></g><g ><path fill="#acd8cf" d="M0 314.978c0-9.933 8.053-17.986 17.986-17.986 9.934 0 17.987 8.053 17.987 17.986 0 9.934-8.053 17.987-17.987 17.987C8.053 332.965 0 324.912 0 314.978z"/></g><g ><path fill="#acd8cf" d="M0 371.928c0-9.934 8.053-17.987 17.986-17.987 9.934 0 17.987 8.053 17.987 17.987 0 9.933-8.053 17.986-17.987 17.986C8.053 389.914 0 381.861 0 371.928z"/></g><g ><path fill="#acd8cf" d="M9.89 428.012c0-9.934 8.052-17.986 17.985-17.986 9.934 0 17.987 8.052 17.987 17.986 0 9.934-8.053 17.986-17.987 17.986-9.933 0-17.986-8.052-17.986-17.986z"/></g><g ><path fill="#acd8cf" d="M29.367 481.526c0-9.933 8.053-17.986 17.986-17.986 9.934 0 17.987 8.053 17.987 17.986 0 9.934-8.053 17.987-17.987 17.987-9.933 0-17.986-8.053-17.986-17.987z"/></g><g ><path fill="#acd8cf" d="M57.842 530.846c0-9.933 8.052-17.986 17.986-17.986 9.934 0 17.986 8.053 17.986 17.986 0 9.934-8.052 17.987-17.986 17.987-9.934 0-17.986-8.053-17.986-17.987z"/></g><g ><path fill="#acd8cf" d="M94.448 574.472c0-9.934 8.053-17.987 17.986-17.987 9.934 0 17.987 8.053 17.987 17.987 0 9.933-8.053 17.986-17.987 17.986-9.933 0-17.986-8.053-17.986-17.986z"/></g><g ><path fill="#acd8cf" d="M138.074 611.078c0-9.933 8.052-17.986 17.986-17.986 9.934 0 17.986 8.053 17.986 17.986 0 9.934-8.052 17.987-17.986 17.987-9.934 0-17.986-8.053-17.986-17.987z"/></g><g ><path fill="#acd8cf" d="M187.393 639.553c0-9.934 8.053-17.986 17.986-17.986 9.934 0 17.987 8.052 17.987 17.986 0 9.934-8.053 17.986-17.987 17.986-9.933 0-17.986-8.052-17.986-17.986z"/></g><g ><path fill="#acd8cf" d="M240.908 659.03c0-9.933 8.053-17.986 17.986-17.986 9.934 0 17.987 8.053 17.987 17.987 0 9.933-8.053 17.986-17.987 17.986-9.933 0-17.986-8.053-17.986-17.986z"/></g><g ><path fill="#acd8cf" d="M296.992 668.92c0-9.934 8.053-17.986 17.986-17.986 9.934 0 17.987 8.052 17.987 17.986 0 9.934-8.053 17.986-17.987 17.986-9.933 0-17.986-8.052-17.986-17.986z"/></g><g ><path fill="#acd8cf" d="M353.941 668.92c0-9.934 8.053-17.986 17.987-17.986 9.933 0 17.986 8.052 17.986 17.986 0 9.934-8.053 17.986-17.986 17.986-9.934 0-17.987-8.052-17.987-17.986z"/></g><g ><path fill="#acd8cf" d="M410.025 659.03c0-9.933 8.053-17.986 17.987-17.986 9.933 0 17.986 8.053 17.986 17.987 0 9.933-8.053 17.986-17.986 17.986-9.934 0-17.987-8.053-17.987-17.986z"/></g><g ><path fill="#acd8cf" d="M463.54 639.553c0-9.934 8.053-17.986 17.987-17.986 9.933 0 17.986 8.052 17.986 17.986 0 9.934-8.053 17.986-17.986 17.986-9.934 0-17.987-8.052-17.987-17.986z"/></g><g ><path fill="#acd8cf" d="M512.86 611.078c0-9.933 8.052-17.986 17.986-17.986 9.934 0 17.986 8.053 17.986 17.986 0 9.934-8.052 17.987-17.986 17.987-9.934 0-17.986-8.053-17.986-17.987z"/></g><g ><path fill="#acd8cf" d="M556.485 574.472c0-9.934 8.053-17.987 17.987-17.987 9.933 0 17.986 8.053 17.986 17.987 0 9.933-8.053 17.986-17.986 17.986-9.934 0-17.987-8.053-17.987-17.986z"/></g><g ><path fill="#acd8cf" d="M593.092 530.846c0-9.933 8.053-17.986 17.986-17.986 9.934 0 17.986 8.053 17.986 17.986 0 9.934-8.052 17.987-17.986 17.987-9.933 0-17.986-8.053-17.986-17.987z"/></g><g ><path fill="#acd8cf" d="M621.566 481.526c0-9.933 8.053-17.986 17.987-17.986 9.933 0 17.986 8.053 17.986 17.986 0 9.934-8.053 17.987-17.986 17.987-9.934 0-17.987-8.053-17.987-17.987z"/></g><g ><path fill="#acd8cf" d="M641.044 428.012c0-9.934 8.053-17.986 17.987-17.986 9.933 0 17.986 8.052 17.986 17.986 0 9.934-8.053 17.986-17.986 17.986-9.934 0-17.987-8.052-17.987-17.986z"/></g><g ><path fill="#acd8cf" d="M650.933 371.928c0-9.934 8.053-17.987 17.987-17.987 9.933 0 17.986 8.053 17.986 17.987 0 9.933-8.053 17.986-17.986 17.986-9.934 0-17.987-8.053-17.987-17.986z"/></g><g ><path fill="#acd8cf" d="M650.933 314.978c0-9.933 8.053-17.986 17.987-17.986 9.933 0 17.986 8.053 17.986 17.986 0 9.934-8.053 17.987-17.986 17.987-9.934 0-17.987-8.053-17.987-17.987z"/></g><g ><path fill="#acd8cf" d="M641.044 258.894c0-9.933 8.053-17.986 17.987-17.986 9.933 0 17.986 8.053 17.986 17.986 0 9.934-8.053 17.987-17.986 17.987-9.934 0-17.987-8.053-17.987-17.987z"/></g><g ><path fill="#acd8cf" d="M621.566 205.38c0-9.934 8.053-17.987 17.987-17.987 9.933 0 17.986 8.053 17.986 17.986 0 9.934-8.053 17.987-17.986 17.987-9.934 0-17.987-8.053-17.987-17.987z"/></g><g ><path fill="#acd8cf" d="M593.092 156.06c0-9.934 8.053-17.987 17.986-17.987 9.934 0 17.986 8.053 17.986 17.987 0 9.933-8.052 17.986-17.986 17.986-9.933 0-17.986-8.053-17.986-17.986z"/></g><g ><path fill="#acd8cf" d="M517.982 150.938c0-9.934 8.053-17.987 17.987-17.987 9.933 0 17.986 8.053 17.986 17.987 0 9.933-8.053 17.986-17.986 17.986-9.934 0-17.987-8.053-17.987-17.986z"/></g><g ><path fill="#acd8cf" d="M475.288 116.126c0-9.934 8.053-17.987 17.987-17.987 9.933 0 17.986 8.053 17.986 17.987 0 9.933-8.053 17.986-17.986 17.986-9.934 0-17.987-8.053-17.987-17.986z"/></g><g ><path fill="#acd8cf" d="M426.46 90.62c0-9.933 8.054-17.986 17.987-17.986 9.934 0 17.986 8.053 17.986 17.986 0 9.934-8.052 17.987-17.986 17.987-9.933 0-17.986-8.053-17.986-17.987z"/></g><g ><path fill="#acd8cf" d="M373.498 75.465c0-9.933 8.053-17.986 17.987-17.986 9.933 0 17.986 8.053 17.986 17.986 0 9.934-8.053 17.987-17.986 17.987-9.934 0-17.987-8.053-17.987-17.987z"/></g><g ><path fill="#acd8cf" d="M318.57 71.283c0-9.934 8.052-17.987 17.986-17.987 9.934 0 17.986 8.053 17.986 17.987 0 9.933-8.052 17.986-17.986 17.986-9.934 0-17.986-8.053-17.986-17.986z"/></g><g ><path fill="#acd8cf" d="M263.923 78.242c0-9.933 8.053-17.986 17.987-17.986 9.933 0 17.986 8.053 17.986 17.986 0 9.934-8.053 17.987-17.986 17.987-9.934 0-17.987-8.053-17.987-17.987z"/></g><g ><path fill="#acd8cf" d="M211.796 96.059c0-9.934 8.053-17.986 17.987-17.986 9.933 0 17.986 8.052 17.986 17.986 0 9.933-8.053 17.986-17.986 17.986-9.934 0-17.987-8.053-17.987-17.986z"/></g><g ><path fill="#acd8cf" d="M164.323 124.005c0-9.933 8.053-17.986 17.987-17.986 9.933 0 17.986 8.053 17.986 17.986 0 9.934-8.053 17.987-17.986 17.987-9.934 0-17.987-8.053-17.987-17.987z"/></g><g ><path fill="#acd8cf" d="M123.447 160.935c0-9.933 8.053-17.986 17.987-17.986 9.933 0 17.986 8.053 17.986 17.986 0 9.934-8.053 17.986-17.986 17.986-9.934 0-17.987-8.052-17.987-17.986z"/></g><g ><path fill="#acd8cf" d="M90.842 205.338c0-9.934 8.053-17.987 17.986-17.987 9.934 0 17.987 8.053 17.987 17.987 0 9.933-8.053 17.986-17.987 17.986-9.933 0-17.986-8.053-17.986-17.986z"/></g><g ><path fill="#acd8cf" d="M67.842 255.395c0-9.934 8.053-17.987 17.987-17.987 9.933 0 17.986 8.053 17.986 17.987 0 9.933-8.053 17.986-17.986 17.986-9.934 0-17.987-8.053-17.987-17.986z"/></g><g ><path fill="#acd8cf" d="M55.39 309.056c0-9.933 8.053-17.986 17.986-17.986 9.934 0 17.987 8.053 17.987 17.986 0 9.934-8.053 17.987-17.987 17.987-9.933 0-17.986-8.053-17.986-17.987z"/></g><g ><path fill="#acd8cf" d="M53.994 364.127c0-9.934 8.053-17.987 17.987-17.987 9.933 0 17.986 8.053 17.986 17.987 0 9.933-8.053 17.986-17.986 17.986-9.934 0-17.987-8.053-17.987-17.986z"/></g><g ><path fill="#acd8cf" d="M63.713 418.35c0-9.934 8.053-17.986 17.986-17.986 9.934 0 17.987 8.052 17.987 17.986 0 9.933-8.053 17.986-17.987 17.986-9.933 0-17.986-8.053-17.986-17.986z"/></g><g ><path fill="#acd8cf" d="M84.148 469.508c0-9.934 8.053-17.987 17.986-17.987 9.934 0 17.987 8.053 17.987 17.987 0 9.933-8.053 17.986-17.987 17.986-9.933 0-17.986-8.053-17.986-17.986z"/></g><g ><path fill="#acd8cf" d="M114.462 515.505c0-9.933 8.053-17.986 17.987-17.986 9.933 0 17.986 8.053 17.986 17.986 0 9.934-8.053 17.987-17.986 17.987-9.934 0-17.987-8.053-17.987-17.987z"/></g><g ><path fill="#acd8cf" d="M153.415 554.458c0-9.934 8.053-17.987 17.987-17.987 9.933 0 17.986 8.053 17.986 17.987 0 9.933-8.053 17.986-17.986 17.986-9.934 0-17.987-8.053-17.987-17.986z"/></g><g ><path fill="#acd8cf" d="M199.412 584.772c0-9.934 8.053-17.987 17.986-17.987 9.934 0 17.987 8.053 17.987 17.987 0 9.933-8.053 17.986-17.987 17.986-9.933 0-17.986-8.053-17.986-17.986z"/></g><g ><path fill="#acd8cf" d="M250.57 605.207c0-9.934 8.052-17.987 17.986-17.987 9.933 0 17.986 8.053 17.986 17.987 0 9.933-8.053 17.986-17.986 17.986-9.934 0-17.987-8.053-17.987-17.986z"/></g><g ><path fill="#acd8cf" d="M304.793 614.925c0-9.934 8.053-17.986 17.987-17.986 9.933 0 17.986 8.052 17.986 17.986 0 9.934-8.053 17.986-17.986 17.986-9.934 0-17.987-8.052-17.987-17.986z"/></g><g ><path fill="#acd8cf" d="M359.863 613.53c0-9.933 8.053-17.986 17.987-17.986 9.933 0 17.986 8.053 17.986 17.987 0 9.933-8.053 17.986-17.986 17.986-9.934 0-17.987-8.053-17.987-17.986z"/></g><g ><path fill="#acd8cf" d="M413.525 601.078c0-9.934 8.053-17.987 17.987-17.987 9.933 0 17.986 8.053 17.986 17.987 0 9.933-8.053 17.986-17.986 17.986-9.934 0-17.987-8.053-17.987-17.986z"/></g><g ><path fill="#acd8cf" d="M463.582 578.078c0-9.933 8.053-17.986 17.986-17.986 9.934 0 17.987 8.053 17.987 17.986 0 9.934-8.053 17.987-17.987 17.987-9.933 0-17.986-8.053-17.986-17.987z"/></g><g ><path fill="#acd8cf" d="M507.985 545.472c0-9.933 8.052-17.986 17.986-17.986 9.933 0 17.986 8.053 17.986 17.986 0 9.934-8.053 17.987-17.986 17.987-9.934 0-17.987-8.053-17.987-17.987z"/></g><g ><path fill="#acd8cf" d="M544.914 504.596c0-9.933 8.053-17.986 17.987-17.986 9.933 0 17.986 8.053 17.986 17.986 0 9.934-8.053 17.987-17.986 17.987-9.934 0-17.987-8.053-17.987-17.987z"/></g><g ><path fill="#acd8cf" d="M572.86 457.123c0-9.933 8.053-17.986 17.987-17.986 9.933 0 17.986 8.053 17.986 17.986 0 9.934-8.053 17.987-17.986 17.987-9.934 0-17.987-8.053-17.987-17.987z"/></g><g ><path fill="#acd8cf" d="M590.678 404.997c0-9.934 8.053-17.987 17.986-17.987 9.934 0 17.987 8.053 17.987 17.987 0 9.933-8.053 17.986-17.987 17.986-9.933 0-17.986-8.053-17.986-17.986z"/></g><g ><path fill="#acd8cf" d="M597.638 350.35c0-9.933 8.052-17.986 17.986-17.986 9.933 0 17.986 8.053 17.986 17.987 0 9.933-8.053 17.986-17.986 17.986-9.934 0-17.986-8.053-17.986-17.986z"/></g><g ><path fill="#acd8cf" d="M593.455 295.421c0-9.933 8.052-17.986 17.986-17.986 9.934 0 17.986 8.053 17.986 17.986 0 9.934-8.052 17.987-17.986 17.987-9.934 0-17.986-8.053-17.986-17.987z"/></g><g ><path fill="#acd8cf" d="M578.3 242.46c0-9.934 8.053-17.987 17.986-17.987 9.934 0 17.987 8.053 17.987 17.986 0 9.934-8.053 17.987-17.987 17.987-9.933 0-17.986-8.053-17.986-17.987z"/></g><g ><path fill="#acd8cf" d="M552.795 193.632c0-9.934 8.052-17.986 17.986-17.986 9.934 0 17.986 8.052 17.986 17.986 0 9.933-8.052 17.986-17.986 17.986-9.934 0-17.986-8.053-17.986-17.986z"/></g><g ><path fill="#acd8cf" d="M479.48 189.44c0-9.933 8.052-17.986 17.986-17.986 9.933 0 17.986 8.053 17.986 17.986 0 9.934-8.053 17.987-17.986 17.987-9.934 0-17.987-8.053-17.987-17.987z"/></g><g ><path fill="#acd8cf" d="M436.34 155.978c0-9.933 8.052-17.986 17.986-17.986 9.933 0 17.986 8.053 17.986 17.986 0 9.934-8.053 17.987-17.986 17.987-9.934 0-17.987-8.053-17.987-17.987z"/></g><g ><path fill="#acd8cf" d="M386.233 134.295c0-9.934 8.053-17.986 17.986-17.986 9.934 0 17.987 8.052 17.987 17.986 0 9.934-8.053 17.986-17.987 17.986-9.933 0-17.986-8.052-17.986-17.986z"/></g><g ><path fill="#acd8cf" d="M332.308 125.754c0-9.933 8.053-17.986 17.987-17.986 9.933 0 17.986 8.053 17.986 17.986 0 9.934-8.053 17.987-17.986 17.987-9.934 0-17.987-8.053-17.987-17.987z"/></g><g ><path fill="#acd8cf" d="M277.954 130.892c0-9.933 8.052-17.986 17.986-17.986 9.934 0 17.986 8.053 17.986 17.986 0 9.934-8.052 17.987-17.986 17.987-9.934 0-17.986-8.053-17.986-17.987z"/></g><g ><path fill="#acd8cf" d="M226.585 149.386c0-9.934 8.052-17.986 17.986-17.986 9.933 0 17.986 8.052 17.986 17.986 0 9.934-8.053 17.986-17.986 17.986-9.934 0-17.986-8.052-17.986-17.986z"/></g><g ><path fill="#acd8cf" d="M181.429 180.074c0-9.933 8.052-17.986 17.986-17.986 9.934 0 17.986 8.053 17.986 17.986 0 9.934-8.052 17.987-17.986 17.987-9.934 0-17.986-8.053-17.986-17.987z"/></g><g ><path fill="#acd8cf" d="M145.323 221.028c0-9.934 8.053-17.986 17.986-17.986 9.934 0 17.987 8.052 17.987 17.986 0 9.933-8.053 17.986-17.987 17.986-9.933 0-17.986-8.053-17.986-17.986z"/></g><g ><path fill="#acd8cf" d="M120.537 269.674c0-9.933 8.052-17.986 17.986-17.986 9.934 0 17.986 8.053 17.986 17.986 0 9.934-8.052 17.986-17.986 17.986-9.934 0-17.986-8.052-17.986-17.986z"/></g><g ><path fill="#acd8cf" d="M108.627 322.956c0-9.934 8.052-17.987 17.986-17.987 9.934 0 17.986 8.053 17.986 17.987 0 9.933-8.052 17.986-17.986 17.986-9.934 0-17.986-8.053-17.986-17.986z"/></g><g ><path fill="#acd8cf" d="M110.342 377.526c0-9.934 8.052-17.987 17.986-17.987 9.934 0 17.986 8.053 17.986 17.987 0 9.933-8.052 17.986-17.986 17.986-9.934 0-17.986-8.053-17.986-17.986z"/></g><g ><path fill="#acd8cf" d="M125.574 429.955c0-9.934 8.052-17.986 17.986-17.986 9.934 0 17.986 8.052 17.986 17.986 0 9.933-8.052 17.986-17.986 17.986-9.934 0-17.986-8.053-17.986-17.986z"/></g><g ><path fill="#acd8cf" d="M153.366 476.949c0-9.934 8.052-17.987 17.986-17.987 9.934 0 17.986 8.053 17.986 17.987 0 9.933-8.052 17.986-17.986 17.986-9.934 0-17.986-8.053-17.986-17.986z"/></g><g ><path fill="#acd8cf" d="M191.971 515.554c0-9.934 8.053-17.986 17.987-17.986 9.933 0 17.986 8.052 17.986 17.986 0 9.934-8.053 17.986-17.986 17.986-9.934 0-17.987-8.052-17.987-17.986z"/></g><g ><path fill="#acd8cf" d="M238.965 543.346c0-9.933 8.053-17.986 17.987-17.986 9.933 0 17.986 8.053 17.986 17.986 0 9.934-8.053 17.987-17.986 17.987-9.934 0-17.987-8.053-17.987-17.987z"/></g><g ><path fill="#acd8cf" d="M291.394 558.578c0-9.933 8.053-17.986 17.987-17.986 9.933 0 17.986 8.053 17.986 17.986 0 9.934-8.053 17.987-17.986 17.987-9.934 0-17.987-8.053-17.987-17.987z"/></g><g ><path fill="#acd8cf" d="M345.964 560.293c0-9.933 8.053-17.986 17.986-17.986 9.934 0 17.987 8.053 17.987 17.986 0 9.934-8.053 17.987-17.987 17.987-9.933 0-17.986-8.053-17.986-17.987z"/></g><g ><path fill="#acd8cf" d="M399.246 548.383c0-9.933 8.053-17.986 17.986-17.986 9.934 0 17.987 8.053 17.987 17.986 0 9.934-8.053 17.987-17.987 17.987-9.933 0-17.986-8.053-17.986-17.987z"/></g><g ><path fill="#acd8cf" d="M447.892 523.597c0-9.934 8.053-17.987 17.986-17.987 9.934 0 17.987 8.053 17.987 17.987 0 9.933-8.053 17.986-17.987 17.986-9.933 0-17.986-8.053-17.986-17.986z"/></g><g ><path fill="#acd8cf" d="M488.846 487.491c0-9.933 8.053-17.986 17.986-17.986 9.934 0 17.987 8.053 17.987 17.986 0 9.934-8.053 17.987-17.987 17.987-9.933 0-17.986-8.053-17.986-17.987z"/></g><g ><path fill="#acd8cf" d="M519.534 442.335c0-9.933 8.053-17.986 17.986-17.986 9.934 0 17.986 8.053 17.986 17.986 0 9.934-8.052 17.987-17.986 17.987-9.933 0-17.986-8.053-17.986-17.987z"/></g><g ><path fill="#acd8cf" d="M538.028 390.966c0-9.934 8.053-17.987 17.986-17.987 9.934 0 17.987 8.053 17.987 17.987 0 9.933-8.053 17.986-17.987 17.986-9.933 0-17.986-8.053-17.986-17.986z"/></g><g ><path fill="#acd8cf" d="M543.166 336.612c0-9.933 8.053-17.986 17.986-17.986 9.934 0 17.987 8.053 17.987 17.986 0 9.934-8.053 17.987-17.987 17.987-9.933 0-17.986-8.053-17.986-17.987z"/></g><g ><path fill="#acd8cf" d="M534.625 282.687c0-9.934 8.053-17.986 17.986-17.986 9.934 0 17.987 8.052 17.987 17.986 0 9.934-8.053 17.986-17.987 17.986-9.933 0-17.986-8.052-17.986-17.986z"/></g><g ><path fill="#acd8cf" d="M512.942 232.58c0-9.933 8.053-17.986 17.986-17.986 9.934 0 17.987 8.053 17.987 17.986 0 9.934-8.053 17.987-17.987 17.987-9.933 0-17.986-8.053-17.986-17.987z"/></g><g ><path fill="#acd8cf" d="M440.976 227.944c0-9.934 8.053-17.986 17.986-17.986 9.934 0 17.987 8.052 17.987 17.986 0 9.933-8.053 17.986-17.987 17.986-9.933 0-17.986-8.053-17.986-17.986z"/></g><g ><path fill="#acd8cf" d="M397.212 196.696c0-9.933 8.052-17.986 17.986-17.986 9.934 0 17.986 8.053 17.986 17.986 0 9.934-8.052 17.987-17.986 17.987-9.934 0-17.986-8.053-17.986-17.987z"/></g><g ><path fill="#acd8cf" d="M345.672 181.353c0-9.934 8.053-17.987 17.987-17.987 9.933 0 17.986 8.053 17.986 17.987 0 9.933-8.053 17.986-17.986 17.986-9.934 0-17.987-8.053-17.987-17.986z"/></g><g ><path fill="#acd8cf" d="M291.944 183.575c0-9.934 8.053-17.987 17.986-17.987 9.934 0 17.986 8.053 17.986 17.987 0 9.933-8.052 17.986-17.986 17.986-9.933 0-17.986-8.053-17.986-17.987z"/></g><g ><path fill="#acd8cf" d="M241.848 203.123c0-9.934 8.052-17.987 17.986-17.987 9.934 0 17.986 8.053 17.986 17.987 0 9.933-8.052 17.986-17.986 17.986-9.934 0-17.986-8.053-17.986-17.986z"/></g><g ><path fill="#acd8cf" d="M200.813 237.877c0-9.934 8.053-17.986 17.986-17.986 9.934 0 17.987 8.052 17.987 17.986 0 9.934-8.053 17.986-17.987 17.986-9.933 0-17.986-8.052-17.986-17.986z"/></g><g ><path fill="#acd8cf" d="M173.287 284.072c0-9.934 8.052-17.986 17.986-17.986 9.934 0 17.986 8.052 17.986 17.986 0 9.934-8.052 17.986-17.986 17.986-9.934 0-17.986-8.052-17.986-17.986z"/></g><g ><path fill="#acd8cf" d="M162.251 336.703c0-9.934 8.053-17.987 17.987-17.987 9.933 0 17.986 8.053 17.986 17.987 0 9.933-8.053 17.986-17.986 17.986-9.934 0-17.987-8.053-17.987-17.986z"/></g><g ><path fill="#acd8cf" d="M168.903 390.065c0-9.934 8.053-17.987 17.986-17.987 9.934 0 17.986 8.053 17.986 17.987 0 9.933-8.052 17.986-17.986 17.986-9.933 0-17.986-8.053-17.986-17.986z"/></g><g ><path fill="#acd8cf" d="M192.52 438.375c0-9.933 8.053-17.986 17.987-17.986 9.933 0 17.986 8.053 17.986 17.986 0 9.934-8.053 17.987-17.986 17.987-9.934 0-17.987-8.053-17.987-17.987z"/></g><g ><path fill="#acd8cf" d="M230.545 476.4c0-9.934 8.053-17.987 17.986-17.987 9.934 0 17.987 8.053 17.987 17.986 0 9.934-8.053 17.987-17.987 17.987-9.933 0-17.986-8.053-17.986-17.987z"/></g><g ><path fill="#acd8cf" d="M278.856 500.016c0-9.933 8.052-17.986 17.986-17.986 9.934 0 17.986 8.053 17.986 17.986 0 9.934-8.052 17.987-17.986 17.987-9.934 0-17.986-8.053-17.986-17.987z"/></g><g ><path fill="#acd8cf" d="M332.217 506.669c0-9.934 8.053-17.987 17.987-17.987 9.933 0 17.986 8.053 17.986 17.987 0 9.933-8.053 17.986-17.986 17.986-9.934 0-17.987-8.053-17.987-17.986z"/></g><g ><path fill="#acd8cf" d="M384.848 495.633c0-9.933 8.052-17.986 17.986-17.986 9.933 0 17.986 8.053 17.986 17.986 0 9.934-8.053 17.987-17.986 17.987-9.934 0-17.986-8.053-17.986-17.987z"/></g><g ><path fill="#acd8cf" d="M431.043 468.106c0-9.933 8.053-17.986 17.986-17.986 9.934 0 17.987 8.053 17.987 17.986 0 9.934-8.053 17.987-17.987 17.987-9.933 0-17.986-8.053-17.986-17.987z"/></g><g ><path fill="#acd8cf" d="M465.797 427.072c0-9.934 8.053-17.986 17.987-17.986 9.933 0 17.986 8.052 17.986 17.986 0 9.934-8.053 17.986-17.986 17.986-9.934 0-17.987-8.052-17.987-17.986z"/></g><g ><path fill="#acd8cf" d="M485.345 376.976c0-9.934 8.053-17.987 17.986-17.987 9.934 0 17.987 8.053 17.987 17.987 0 9.933-8.053 17.986-17.987 17.986-9.933 0-17.986-8.053-17.986-17.986z"/></g><g ><path fill="#acd8cf" d="M487.567 323.247c0-9.933 8.053-17.986 17.987-17.986 9.933 0 17.986 8.053 17.986 17.986 0 9.934-8.053 17.987-17.986 17.987-9.934 0-17.987-8.053-17.987-17.987z"/></g><g ><path fill="#acd8cf" d="M472.223 271.708c0-9.934 8.053-17.986 17.987-17.986 9.933 0 17.986 8.052 17.986 17.986 0 9.934-8.053 17.986-17.986 17.986-9.934 0-17.987-8.052-17.987-17.986z"/></g><g ><path fill="#acd8cf" d="M402.473 266.447c0-9.934 8.053-17.987 17.986-17.987 9.934 0 17.987 8.053 17.987 17.987 0 9.933-8.053 17.986-17.987 17.986-9.933 0-17.986-8.053-17.986-17.986z"/></g><g ><path fill="#acd8cf" d="M353.653 238.26c0-9.933 8.053-17.986 17.986-17.986 9.934 0 17.987 8.053 17.987 17.987 0 9.933-8.053 17.986-17.987 17.986-9.933 0-17.986-8.053-17.986-17.986z"/></g><g ><path fill="#acd8cf" d="M297.28 238.26c0-9.933 8.053-17.986 17.987-17.986 9.933 0 17.986 8.053 17.986 17.987 0 9.933-8.053 17.986-17.986 17.986-9.934 0-17.987-8.053-17.987-17.986z"/></g><g ><path fill="#acd8cf" d="M248.46 266.447c0-9.934 8.053-17.987 17.987-17.987 9.933 0 17.986 8.053 17.986 17.987 0 9.933-8.053 17.986-17.986 17.986-9.934 0-17.987-8.053-17.987-17.986z"/></g><g ><path fill="#acd8cf" d="M220.274 315.267c0-9.934 8.053-17.986 17.987-17.986 9.933 0 17.986 8.052 17.986 17.986 0 9.933-8.053 17.986-17.986 17.986-9.934 0-17.987-8.053-17.987-17.986z"/></g><g ><path fill="#acd8cf" d="M220.274 371.64c0-9.934 8.053-17.987 17.987-17.987 9.933 0 17.986 8.053 17.986 17.986 0 9.934-8.053 17.987-17.986 17.987-9.934 0-17.987-8.053-17.987-17.987z"/></g><g ><path fill="#acd8cf" d="M248.46 420.46c0-9.934 8.053-17.987 17.987-17.987 9.933 0 17.986 8.053 17.986 17.987 0 9.933-8.053 17.986-17.986 17.986-9.934 0-17.987-8.053-17.987-17.986z"/></g><g ><path fill="#acd8cf" d="M297.28 448.646c0-9.934 8.053-17.987 17.987-17.987 9.933 0 17.986 8.053 17.986 17.987 0 9.933-8.053 17.986-17.986 17.986-9.934 0-17.987-8.053-17.987-17.986z"/></g><g ><path fill="#acd8cf" d="M353.653 448.646c0-9.934 8.053-17.987 17.986-17.987 9.934 0 17.987 8.053 17.987 17.987 0 9.933-8.053 17.986-17.987 17.986-9.933 0-17.986-8.053-17.986-17.986z"/></g><g ><path fill="#acd8cf" d="M402.473 420.46c0-9.934 8.053-17.987 17.986-17.987 9.934 0 17.987 8.053 17.987 17.987 0 9.933-8.053 17.986-17.987 17.986-9.933 0-17.986-8.053-17.986-17.986z"/></g><g ><path fill="#acd8cf" d="M430.66 371.64c0-9.934 8.052-17.987 17.985-17.987 9.934 0 17.987 8.053 17.987 17.986 0 9.934-8.053 17.987-17.987 17.987-9.933 0-17.986-8.053-17.986-17.987z"/></g><g ><path fill="#acd8cf" d="M430.66 315.267c0-9.934 8.052-17.986 17.985-17.986 9.934 0 17.987 8.052 17.987 17.986 0 9.933-8.053 17.986-17.987 17.986-9.933 0-17.986-8.053-17.986-17.986z"/></g><g ><path fill="#acd8cf" d="M363.97 304.95c0-9.934 8.053-17.987 17.986-17.987 9.934 0 17.987 8.053 17.987 17.987 0 9.933-8.053 17.986-17.987 17.986-9.933 0-17.986-8.053-17.986-17.986z"/></g><g ><path fill="#acd8cf" d="M311.373 290.857c0-9.933 8.053-17.986 17.987-17.986 9.933 0 17.986 8.053 17.986 17.986 0 9.934-8.053 17.987-17.986 17.987-9.934 0-17.987-8.053-17.987-17.987z"/></g><g ><path fill="#acd8cf" d="M272.87 329.36c0-9.934 8.053-17.986 17.987-17.986 9.933 0 17.986 8.052 17.986 17.986 0 9.934-8.053 17.986-17.986 17.986-9.934 0-17.987-8.052-17.987-17.986z"/></g><g ><path fill="#acd8cf" d="M286.964 381.957c0-9.934 8.052-17.987 17.986-17.987 9.934 0 17.986 8.053 17.986 17.987 0 9.933-8.052 17.986-17.986 17.986-9.934 0-17.986-8.053-17.986-17.986z"/></g><g ><path fill="#acd8cf" d="M339.56 396.05c0-9.934 8.053-17.987 17.986-17.987 9.934 0 17.987 8.053 17.987 17.986 0 9.934-8.053 17.987-17.987 17.987-9.933 0-17.986-8.053-17.986-17.987z"/></g><g ><path fill="#acd8cf" d="M378.063 357.546c0-9.933 8.053-17.986 17.986-17.986 9.934 0 17.987 8.053 17.987 17.986 0 9.934-8.053 17.987-17.987 17.987-9.933 0-17.986-8.053-17.986-17.987z"/></g><g ><path fill="#acd8cf" d="M325.467 343.453c0-9.933 8.052-17.986 17.986-17.986 9.934 0 17.986 8.053 17.986 17.986 0 9.934-8.052 17.987-17.986 17.987-9.934 0-17.986-8.053-17.986-17.987z"/></g></g></g></svg>