<svg xmlns="http://www.w3.org/2000/svg" viewBox="0 0 23 19"><g><g><path fill="#1e4a7b" d="M22.625 2.218a9.646 9.646 0 0 1-2.309 2.38 13.087 13.087 0 0 1-.527 4.298 13.362 13.362 0 0 1-1.647 3.542 13.91 13.91 0 0 1-2.63 3c-1.017.87-2.243 1.564-3.677 2.082-1.435.518-2.97.777-4.605.777-2.575 0-4.932-.689-7.07-2.067.333.038.703.057 1.112.057 2.138 0 4.043-.656 5.716-1.967a4.484 4.484 0 0 1-2.68-.92 4.501 4.501 0 0 1-1.625-2.273c.314.048.604.071.87.071a4.75 4.75 0 0 0 1.211-.157 4.525 4.525 0 0 1-2.644-1.59c-.699-.84-1.048-1.817-1.048-2.928v-.057a4.56 4.56 0 0 0 2.082.584 4.596 4.596 0 0 1-1.497-1.64A4.489 4.489 0 0 1 1.1 3.217c0-.837.209-1.611.627-2.324a13.04 13.04 0 0 0 4.198 3.4 12.825 12.825 0 0 0 5.295 1.418 5.105 5.105 0 0 1-.113-1.055c0-1.273.449-2.359 1.347-3.257C13.353.5 14.438.051 15.712.051c1.33 0 2.452.485 3.364 1.454 1.035-.2 2.01-.57 2.922-1.112-.352 1.093-1.027 1.939-2.024 2.537a9.168 9.168 0 0 0 2.652-.712z"/></g></g></svg>